<svg width="140px" height="35px" viewBox="0 0 140 35" version="1.1" xmlns="http://www.w3.org/2000/svg" xmlns:xlink="http://www.w3.org/1999/xlink">
  <title>Interact Logo</title>
  <desc></desc>
  <defs>
      <linearGradient x1="0%" y1="98.7022519%" x2="180.809238%" y2="-80.4479487%" id="linearGradient-1">
          <stop stop-color="#10B5E8" offset="0%"></stop>
          <stop stop-color="#8B00FF" offset="99.96%"></stop>
      </linearGradient>
      <linearGradient x1="-45.7806055%" y1="263.453698%" x2="217.663026%" y2="0%" id="linearGradient-2">
          <stop stop-color="#10B5E8" offset="0%"></stop>
          <stop stop-color="#8B00FF" offset="99.96%"></stop>
      </linearGradient>
      <linearGradient x1="-161.578224%" y1="206.868958%" x2="100%" y2="-62.821379%" id="linearGradient-3">
          <stop stop-color="#10B5E8" offset="0%"></stop>
          <stop stop-color="#8B00FF" offset="99.96%"></stop>
      </linearGradient>
  </defs>
  <g id="Page-1" stroke="none" stroke-width="1" fill="none" fill-rule="evenodd">
      <g id="Group-2" fill-rule="nonzero">
          <g id="Group">
              <path d="M2.3,18.1 L16.2,18.1 L16.2,32 L2.3,32 L2.3,18.1 Z M0,15.8 L0,34.4 L18.6,34.4 L18.6,15.8 L0,15.8 Z" id="Shape" fill="url(#linearGradient-1)"></path>
              <path d="M8.2,3.1 L16.2,3.1 L16.2,11.1 L8.2,11.1 L8.2,3.1 Z M5.8,0.7 L5.8,13.4 L18.5,13.4 L18.5,0.7 L5.8,0.7 Z" id="Shape" fill="url(#linearGradient-2)"></path>
              <path d="M23.2,10.7 L31,10.7 L31,18.5 L23.2,18.5 L23.2,10.7 Z M20.9,8.3 L20.9,20.8 L33.4,20.8 L33.4,8.3 L20.9,8.3 Z" id="Shape" fill="url(#linearGradient-3)"></path>
          </g>
          <g id="Group" transform="translate(48.000000, 7.000000)" fill="#444444">
              <path d="M2.1,0.2 C3.2,0.2 4.1,1.1 4.1,2.2 C4.1,3.3 3.2,4.2 2.1,4.2 C1,4.2 0.1,3.3 0.1,2.2 C0.1,1.1 1,0.2 2.1,0.2 Z M0.6,19.6 L0.6,6.7 L3.6,6.7 L3.6,19.6 L0.6,19.6 Z" id="Shape"></path>
              <path d="M10.7,19.6 L7.6,19.6 L7.6,6.7 L10.6,6.7 L10.6,8.4 C11.4,6.9 13,6.3 14.4,6.3 C17.6,6.3 19.1,8.6 19.1,11.4 L19.1,19.6 L16,19.6 L16,12 C16,10.4 15.3,9.1 13.4,9.1 C11.7,9.1 10.7,10.4 10.7,12.1 L10.7,19.6 Z" id="Shape"></path>
              <path d="M26.7,6.7 L29.4,6.7 L29.4,9.4 L26.7,9.4 L26.7,15.4 C26.7,16.5 27.2,17 28.3,17 C28.7,17 29.2,16.9 29.4,16.9 L29.4,19.4 C29.2,19.5 28.6,19.7 27.5,19.7 C25.1,19.7 23.6,18.3 23.6,15.9 L23.6,9.4 L21.2,9.4 L21.2,6.7 L21.9,6.7 C23.3,6.7 23.9,5.8 23.9,4.7 L23.9,2.8 L26.7,2.8 L26.7,6.7 Z" id="Shape"></path>
              <path d="M43.8,15.9 C43.1,18.2 41.1,20 38,20 C34.5,20 31.4,17.5 31.4,13.1 C31.4,9 34.4,6.3 37.7,6.3 C41.7,6.3 44,8.9 44,13 C44,13.5 43.9,13.9 43.9,14 L34.5,14 C34.6,16 36.1,17.4 38,17.4 C39.9,17.4 40.8,16.4 41.2,15.1 L43.8,15.9 Z M40.9,11.7 C40.8,10.2 39.8,8.8 37.7,8.8 C35.8,8.8 34.7,10.3 34.5,11.7 L40.9,11.7 Z" id="Shape"></path>
              <path d="M54.4,9.8 C54.1,9.7 53.7,9.7 53.4,9.7 C51,9.7 49.9,11.1 49.9,13.5 L49.9,19.6 L46.8,19.6 L46.8,6.7 L49.8,6.7 L49.8,8.8 C50.4,7.4 51.8,6.6 53.5,6.6 C53.9,6.6 54.2,6.7 54.3,6.7 L54.3,9.8 L54.4,9.8 Z" id="Shape"></path>
              <path d="M60.1,12.2 L63.4,11.7 C64.1,11.6 64.4,11.2 64.4,10.8 C64.4,9.7 63.7,8.8 62,8.8 C60.4,8.8 59.5,9.8 59.4,11.1 L56.6,10.5 C56.8,8.3 58.9,6.3 62,6.3 C66,6.3 67.5,8.6 67.5,11.1 L67.5,17.5 C67.5,18.7 67.6,19.4 67.7,19.6 L64.8,19.6 C64.8,19.5 64.7,19 64.7,18 C64.1,19 62.8,20 60.7,20 C58,20 56.3,18.1 56.3,16.1 C56.2,13.8 57.9,12.5 60.1,12.2 Z M64.4,14.3 L64.4,13.7 L61,14.2 C60,14.4 59.3,14.9 59.3,15.9 C59.3,16.8 60,17.6 61.2,17.6 C62.9,17.6 64.4,16.8 64.4,14.3 Z" id="Shape"></path>
              <path d="M73.2,13.1 C73.2,15.7 74.9,17.2 76.8,17.2 C78.8,17.2 79.7,15.8 80,14.8 L82.7,15.8 C82.1,17.8 80.2,20 76.8,20 C73,20 70.1,17.1 70.1,13.1 C70.1,9.1 73,6.3 76.7,6.3 C80.2,6.3 82.1,8.5 82.6,10.5 L79.8,11.5 C79.5,10.4 78.6,9.1 76.7,9.1 C74.8,9.1 73.2,10.5 73.2,13.1 Z" id="Shape"></path>
              <path d="M89.3,6.7 L92,6.7 L92,9.4 L89.3,9.4 L89.3,15.4 C89.3,16.5 89.8,17 90.9,17 C91.3,17 91.8,16.9 92,16.9 L92,19.4 C91.8,19.5 91.2,19.7 90.1,19.7 C87.7,19.7 86.2,18.3 86.2,15.9 L86.2,9.4 L83.8,9.4 L83.8,6.7 L84.5,6.7 C85.9,6.7 86.5,5.8 86.5,4.7 L86.5,2.8 L89.3,2.8 L89.3,6.7 Z" id="Shape"></path>
          </g>
      </g>
  </g>
</svg>